<svg width="75" height="85" viewBox="0 0 75 85" fill="none" xmlns="http://www.w3.org/2000/svg">
<path d="M0 15C0 6.71573 6.7157 0 15 0H60C68.2843 0 75 6.71573 75 15V65.8382C75 70.8981 70.8981 75 65.8382 75H64.3991C63.0947 75 61.8352 75.4761 60.857 76.3389L52.1756 83.9964C49.3875 86.4557 45.2819 83.1757 47.0648 79.9134C48.2742 77.7004 46.6726 75 44.1507 75H29.4871C27.2297 75 25.7875 77.407 26.8522 79.3975C28.464 82.4109 24.5728 85.3325 22.1287 82.944L15.2996 76.2701C14.4665 75.4559 13.3478 75 12.1829 75H9.9467C4.4533 75 0 70.5467 0 65.0533V15Z" fill="#0AC7A0"/>
</svg>
